<svg version="1.1" id="Layer_1" xmlns="http://www.w3.org/2000/svg" xmlns:xlink="http://www.w3.org/1999/xlink" x="0px" y="0px"
	 width="100%" viewBox="0 0 761 263" enable-background="new 0 0 761 263" xml:space="preserve">
<path fill="#000000" opacity="1.000000" stroke="none" 
	d="
M1.000000,53.000000 
	C1.000000,35.670635 1.000000,18.341272 1.000000,1.008931 
	C254.604614,1.005954 508.209229,1.005954 761.906921,1.005954 
	C761.906921,88.584442 761.906921,176.169022 761.906921,263.876801 
	C508.333374,263.876801 254.666702,263.876801 1.000000,263.876801 
	C1.000000,247.257874 1.000000,230.594971 1.276468,213.153259 
	C2.062007,212.531250 2.571079,212.688065 3.443837,213.057999 
	C12.159421,213.848007 20.508984,214.854401 28.863773,214.899841 
	C41.007523,214.965912 53.153564,214.186172 65.301537,214.068741 
	C71.893356,214.005020 78.491211,214.565750 85.545273,214.909195 
	C101.871689,214.987732 117.739273,215.028351 133.606522,214.972824 
	C135.102905,214.967575 136.597183,214.357895 138.508301,214.047150 
	C139.956818,212.553955 141.610748,211.146637 141.885498,209.508057 
	C142.372955,206.601074 142.259415,203.530151 141.963623,200.571167 
	C141.601929,196.953018 142.918640,194.472809 145.494858,191.942947 
	C158.761536,178.914978 171.956329,165.806229 184.822693,152.386703 
	C186.657730,150.472733 187.665161,146.467163 187.090652,143.863098 
	C186.338989,140.455978 183.623322,138.090775 179.172012,137.838165 
	C172.588654,137.464569 169.504532,141.768616 165.671875,145.956116 
	C159.515289,151.651932 153.715942,157.296173 147.951324,162.962402 
	C147.986053,162.984390 147.956314,162.907761 147.684113,162.963501 
	C147.243881,163.331711 147.075867,163.644180 146.945343,163.970734 
	C146.982864,163.984818 146.944031,163.914719 146.629349,164.002472 
	C145.441589,165.084457 144.568527,166.078674 143.512207,167.072418 
	C143.069458,167.209320 142.983978,167.417999 142.823807,167.883270 
	C142.085327,168.380295 141.595566,168.691986 141.067444,168.660614 
	C140.950180,168.101364 140.871262,167.885178 140.838348,167.302124 
	C141.208832,165.285828 141.533340,163.636414 141.923035,161.523178 
	C141.949478,125.377121 141.910736,89.694870 141.894287,53.687485 
	C141.518768,53.273422 141.120972,53.184490 140.542480,52.951038 
	C140.001358,52.545811 139.640884,52.285095 139.031387,51.642052 
	C127.879860,51.125813 116.977348,50.991909 106.056229,50.446159 
	C105.927574,43.691338 105.522446,43.343658 99.006805,44.000412 
	C91.251335,44.782131 90.188431,44.505383 87.233360,37.448792 
	C84.583656,31.121405 79.455177,28.922625 73.512642,28.047354 
	C66.430321,27.004204 59.450714,29.404341 57.078972,35.864941 
	C53.981369,44.302788 48.541210,44.811634 41.532177,44.028973 
	C41.050804,43.975220 40.545826,44.132912 39.651703,44.136765 
	C38.206581,46.221035 37.161583,48.360809 35.872799,50.999775 
	C26.811230,50.999775 17.078491,50.954891 7.347119,51.049858 
	C5.943717,51.063557 4.546877,51.749840 3.075283,52.295578 
	C3.003565,52.466282 3.034488,52.835304 2.650042,52.998489 
	C1.843730,53.107780 1.421865,53.053890 1.000000,53.000000 
M626.052490,157.441849 
	C626.052490,157.441849 626.201233,157.885284 626.037354,158.615662 
	C628.464905,165.345886 632.834656,171.022339 639.940125,171.642288 
	C647.314758,172.285736 654.916504,170.754669 662.373535,169.814987 
	C665.334595,169.441849 665.511169,166.931122 664.757812,164.452545 
	C663.529663,160.411453 661.999878,156.435471 661.135803,152.319000 
	C660.486755,149.227036 659.573730,148.369598 656.492371,149.700256 
	C651.929321,151.670731 649.007629,149.785583 648.540649,144.958542 
	C648.079895,140.196594 648.074402,135.381470 648.046448,130.588638 
	C647.982361,119.591705 648.034058,119.695068 659.017578,118.861946 
	C660.402893,118.756866 662.680603,116.972176 662.786987,115.805443 
	C663.219421,111.060898 662.966858,106.253922 662.966858,100.943207 
	C657.791260,100.943207 653.059326,100.943207 648.032043,100.943207 
	C648.032043,93.942642 648.042542,87.478882 648.025818,81.015198 
	C648.020691,79.049408 647.940552,77.083824 647.743591,74.223740 
	C642.428833,74.126656 637.113708,73.935844 631.799316,73.952950 
	C622.168579,73.983925 622.966370,72.510277 623.090637,82.720642 
	C623.157898,88.253632 623.721497,93.780594 623.975891,99.489433 
	C623.975891,99.489433 624.054443,99.671654 623.518250,99.971130 
	C623.305481,100.303452 623.092712,100.635773 621.991516,100.991821 
	C619.355530,100.841705 616.563171,101.203598 614.110168,100.454338 
	C602.430969,96.886955 592.641296,99.514236 584.279419,108.294800 
	C584.158386,108.172745 584.037292,108.050690 583.986511,107.097710 
	C583.944336,105.432602 583.902161,103.767502 584.034729,101.201157 
	C582.972168,100.803619 581.916748,100.086525 580.845825,100.062569 
	C575.548645,99.944038 570.245117,99.922272 564.948547,100.054169 
	C563.007996,100.102493 561.080322,100.668175 559.016357,101.927383 
	C559.010803,123.150230 558.984070,144.373138 559.047607,165.595779 
	C559.051880,167.012527 559.740784,168.427246 561.018005,169.991089 
	C566.010681,170.326935 571.000244,170.828766 575.997498,170.925186 
	C578.326965,170.970139 580.671570,170.229431 583.837219,169.575745 
	C583.835144,156.749252 583.833008,143.922775 584.135498,130.416870 
	C588.930298,118.841896 591.695923,118.048897 610.458618,123.026680 
	C611.433899,120.871216 612.430847,118.667923 613.427795,116.464630 
	C613.463928,116.989120 613.500061,117.513611 613.536133,118.038101 
	C616.692505,118.396751 619.848877,118.755402 623.163086,119.615372 
	C623.447021,119.823936 623.730896,120.032509 623.981628,120.502052 
	C623.981628,120.502052 624.116699,120.727776 623.305481,121.177650 
	C623.204651,128.901947 623.063110,136.626190 623.053955,144.350601 
	C623.052795,145.332855 623.744141,146.315933 623.985352,147.507904 
	C623.985352,147.507904 624.106628,147.721970 624.004517,148.631531 
	C624.663940,151.447464 625.323364,154.263382 625.991638,157.002426 
	C625.991638,157.002426 625.914612,156.994934 626.052490,157.441849 
M251.984299,169.087006 
	C252.051239,155.066986 252.118179,141.046982 252.789612,127.322418 
	C254.496613,129.695953 256.152832,132.108032 257.919281,134.436478 
	C266.382812,145.592773 274.757172,156.821243 283.480927,167.770935 
	C284.867584,169.511429 287.836426,170.757889 290.137329,170.864777 
	C298.139984,171.236557 306.170776,171.036682 314.190216,170.972275 
	C315.366943,170.962845 316.540100,170.509583 318.192139,170.160995 
	C305.359406,154.706039 293.000946,139.822296 280.319244,124.549263 
	C288.959442,120.167976 296.177368,115.489311 300.170990,106.800949 
	C304.134003,98.179100 304.199280,89.318298 301.690063,80.864059 
	C297.813171,67.801849 286.542084,60.523483 271.707214,58.206211 
	C256.806885,58.193665 241.906570,58.181118 226.137985,58.048267 
	C225.759003,58.982227 225.022278,59.931198 225.060730,60.847649 
	C225.266907,65.761642 225.938507,70.666679 225.954010,75.576378 
	C226.045319,104.480179 226.002167,133.384415 225.994675,162.288498 
	C225.994003,164.881516 225.924637,167.474518 226.313965,170.840805 
	C233.058212,170.893585 239.803131,171.015564 246.546280,170.952286 
	C248.316345,170.935669 250.081039,170.344894 251.984299,169.087006 
M337.040558,138.951340 
	C337.040558,138.951340 336.981232,139.081055 337.922119,139.008194 
	C354.252411,139.008194 370.582703,139.008194 387.483429,139.008194 
	C386.932373,135.523468 386.489594,132.723419 386.003204,129.066620 
	C386.323364,120.982437 382.945007,113.814438 377.271820,109.047745 
	C363.725647,97.666054 348.365814,95.322243 331.800110,102.904640 
	C309.808441,112.970589 303.176453,142.135376 321.207855,160.713455 
	C330.311432,170.093002 341.592712,172.858139 354.411713,172.172791 
	C368.042023,171.444077 378.289917,165.667007 385.774658,154.456985 
	C382.802826,152.901352 379.895660,151.706909 377.349030,149.980621 
	C371.454773,145.985046 366.690704,146.406754 360.403259,150.554306 
	C352.948517,155.471832 339.830627,153.865280 336.980072,142.196594 
	C337.044220,141.132904 337.108368,140.069199 337.040558,138.951340 
M392.995239,205.986771 
	C394.820343,205.994019 396.648956,206.077866 398.469879,205.994202 
	C403.975128,205.741318 409.477356,205.423462 415.774170,204.715332 
	C415.791504,191.787735 415.808807,178.860123 416.406738,165.294250 
	C437.752045,181.697708 469.659576,168.984207 471.511108,141.800140 
	C472.190033,143.189178 472.811462,143.956039 472.938049,144.797379 
	C474.203217,153.206406 478.565704,159.609528 485.583832,164.206482 
	C503.406982,175.880905 524.571289,175.439163 541.979736,163.023270 
	C555.570679,153.330048 558.943298,132.077209 550.143005,117.646164 
	C538.241272,98.129120 506.415009,92.766060 487.582764,106.008369 
	C484.057220,108.487442 480.458496,111.297951 477.999023,114.744385 
	C475.097015,118.810997 473.396698,123.735146 471.208954,128.218704 
	C471.509583,117.786057 460.059875,103.580696 450.134247,100.883530 
	C437.328217,97.403625 425.308655,96.993042 415.235107,109.226631 
	C415.036957,105.527969 414.925171,103.441124 414.803131,101.163399 
	C407.009644,101.163399 399.548401,101.163399 391.231995,101.383499 
	C390.947693,135.519531 390.653442,169.655502 390.450623,203.792023 
	C390.446564,204.473770 391.511108,205.161865 392.995239,205.986771 
z"/>
<path fill="#D4F6C3" opacity="1.000000" stroke="none" 
	d="
M3.080150,212.844879 
	C2.571079,212.688065 2.062007,212.531250 1.276468,212.687225 
	C1.000000,159.979111 1.000000,106.958214 1.000000,53.468658 
	C1.421865,53.053890 1.843730,53.107780 2.671602,53.479389 
	C3.078455,106.813034 3.079302,159.828949 3.080150,212.844879 
z"/>
<path fill="#80D95A" opacity="1.000000" stroke="none" 
	d="
M3.443836,213.057999 
	C3.079302,159.828949 3.078455,106.813034 3.056048,53.316208 
	C3.034488,52.835304 3.003565,52.466282 3.533564,52.301437 
	C12.325803,52.101810 20.588015,52.053535 28.850290,52.035999 
	C37.233196,52.018208 37.232582,52.031281 39.792259,44.613430 
	C39.844757,44.461304 39.963818,44.332146 40.051823,44.192272 
	C40.545826,44.132912 41.050804,43.975220 41.532177,44.028973 
	C48.541210,44.811634 53.981369,44.302788 57.078972,35.864941 
	C59.450714,29.404341 66.430321,27.004204 73.512642,28.047354 
	C79.455177,28.922625 84.583656,31.121405 87.233360,37.448792 
	C90.188431,44.505383 91.251335,44.782131 99.006805,44.000412 
	C105.522446,43.343658 105.927574,43.691338 105.974747,50.740189 
	C117.034721,51.638836 128.157562,51.831612 139.280411,52.024387 
	C139.640884,52.285095 140.001358,52.545811 140.513275,53.172733 
	C140.664719,53.538944 140.806732,53.964561 140.807709,54.435272 
	C140.856033,90.602501 140.903366,126.299019 140.799530,162.290283 
	C140.696365,164.279678 140.744354,165.974350 140.792358,167.669006 
	C140.871262,167.885178 140.950180,168.101364 141.136200,168.916290 
	C141.853043,168.909317 142.462784,168.303635 143.072525,167.697952 
	C142.983978,167.417999 143.069458,167.209320 143.903946,167.063980 
	C145.300629,166.008926 146.122330,164.961823 146.944031,163.914719 
	C146.944031,163.914719 146.982864,163.984818 147.276077,164.012177 
	C147.698303,163.662292 147.827301,163.285019 147.956314,162.907761 
	C147.956314,162.907761 147.986053,162.984390 148.302841,163.078842 
	C154.422791,157.417038 160.225937,151.660767 166.029099,145.904510 
	C169.504532,141.768616 172.588654,137.464569 179.172012,137.838165 
	C183.623322,138.090775 186.338989,140.455978 187.090652,143.863098 
	C187.665161,146.467163 186.657730,150.472733 184.822693,152.386703 
	C171.956329,165.806229 158.761536,178.914978 145.494858,191.942947 
	C142.918640,194.472809 141.601929,196.953018 141.963623,200.571167 
	C142.259415,203.530151 142.372955,206.601074 141.885498,209.508057 
	C141.610748,211.146637 139.956818,212.553955 138.034302,214.029404 
	C121.207031,214.003326 105.269531,213.992661 89.332336,214.058884 
	C87.915939,214.064758 86.501625,214.570953 85.086342,214.844788 
	C78.491211,214.565750 71.893356,214.005020 65.301537,214.068741 
	C53.153564,214.186172 41.007523,214.965912 28.863773,214.899841 
	C20.508984,214.854401 12.159421,213.848007 3.443836,213.057999 
M99.037613,51.756840 
	C95.872459,51.133411 92.715103,50.053150 89.540222,49.998909 
	C85.300545,49.926476 82.779068,49.273457 82.554604,44.086056 
	C82.304512,38.306499 77.327293,34.277397 71.886070,34.233406 
	C66.983971,34.193775 61.508286,38.071201 61.476299,43.152859 
	C61.434605,49.776604 58.045876,50.426197 53.004959,49.902210 
	C52.018806,49.799706 51.002251,49.981678 50.017967,49.870651 
	C46.410557,49.463726 44.525291,50.383980 44.662640,54.660282 
	C44.784115,58.442314 45.295517,60.322380 49.801556,60.229687 
	C63.750961,59.942722 77.710258,60.172806 91.665276,60.108025 
	C99.675171,60.070847 99.151360,61.359776 99.037613,51.756840 
M25.613018,88.709755 
	C23.341869,92.847466 24.126278,94.746262 28.506231,94.758339 
	C57.955486,94.839592 87.405304,94.851089 116.853745,94.679359 
	C118.270470,94.671104 119.675888,92.724449 121.086578,91.680481 
	C119.629868,90.526955 118.177818,88.374084 116.715744,88.367264 
	C86.604675,88.226669 56.492462,88.330490 25.613018,88.709755 
M86.500000,145.041626 
	C67.520424,145.042679 48.539925,144.962418 29.562752,145.176544 
	C27.759693,145.196899 24.642658,146.848816 24.442715,148.109238 
	C23.902594,151.514084 26.952271,151.763931 29.556013,151.765350 
	C58.358356,151.781006 87.161118,151.839417 115.962044,151.638962 
	C117.669388,151.627075 120.595612,149.695801 120.811478,148.321136 
	C121.300781,145.205246 118.446945,145.014969 115.969337,145.023117 
	C106.479637,145.054321 96.989792,145.039398 86.500000,145.041626 
M116.136871,122.993286 
	C118.612366,123.066261 121.405708,122.868469 120.774811,119.618919 
	C120.543846,118.429253 117.638985,117.754601 115.945404,116.861137 
	C115.815353,116.792526 115.617493,116.852608 115.451149,116.852615 
	C86.840065,116.853996 58.228973,116.854225 29.617887,116.861404 
	C28.621899,116.861656 27.427227,116.600685 26.679079,117.050331 
	C25.692148,117.643478 24.451422,118.807724 24.432907,119.748367 
	C24.413130,120.753296 25.481619,122.270538 26.450258,122.682983 
	C27.735867,123.230385 29.384922,122.976372 30.877846,122.977020 
	C58.989899,122.989227 87.101952,122.988144 116.136871,122.993286 
M117.374115,174.124359 
	C115.304337,171.955811 113.389328,169.601120 111.099594,167.697083 
	C109.951836,166.742645 108.121399,166.609192 106.599709,166.104431 
	C106.929840,167.782089 106.707794,169.944855 107.683441,171.055435 
	C112.515671,176.555908 117.644722,181.797134 122.705612,187.094910 
	C131.151779,195.936447 131.367065,196.137314 140.188354,187.664246 
	C153.278793,175.090622 166.092575,162.226608 178.862656,149.326370 
	C179.851562,148.327377 179.569962,146.070709 179.878891,144.398621 
	C178.322021,144.828842 176.696152,145.102921 175.234619,145.748856 
	C174.381058,146.126083 173.791977,147.099442 173.080826,147.801498 
	C160.754852,159.969986 148.446838,172.156754 136.091782,184.295624 
	C131.901611,188.412460 130.726303,188.342957 126.737144,184.117691 
	C123.765266,180.969894 120.818726,177.798172 117.374115,174.124359 
M60.499996,180.122040 
	C75.677856,180.122040 90.855721,180.122040 106.817505,180.122040 
	C104.115417,176.100937 101.945496,173.779083 97.571663,173.813599 
	C74.963890,173.991928 52.353951,173.885208 29.744835,173.921463 
	C27.345285,173.925308 24.000235,173.409393 24.435051,177.125198 
	C24.573313,178.306732 27.753075,179.931580 29.579872,179.983322 
	C39.546566,180.265549 49.525360,180.120407 60.499996,180.122040 
z"/>
<path fill="#80D95A" opacity="1.000000" stroke="none" 
	d="
M392.087158,101.163399 
	C399.548401,101.163399 407.009644,101.163399 414.803131,101.163399 
	C414.925171,103.441124 415.036957,105.527969 415.235107,109.226631 
	C425.308655,96.993042 437.328217,97.403625 450.134247,100.883530 
	C460.059875,103.580696 471.509583,117.786057 471.208954,128.218704 
	C473.396698,123.735146 475.097015,118.810997 477.999023,114.744385 
	C480.458496,111.297951 484.057220,108.487442 487.582764,106.008369 
	C506.415009,92.766060 538.241272,98.129120 550.143005,117.646164 
	C558.943298,132.077209 555.570679,153.330048 541.979736,163.023270 
	C524.571289,175.439163 503.406982,175.880905 485.583832,164.206482 
	C478.565704,159.609528 474.203217,153.206406 472.938049,144.797379 
	C472.811462,143.956039 472.190033,143.189178 471.511108,141.800140 
	C469.659576,168.984207 437.752045,181.697708 416.167175,165.621460 
	C415.927612,165.948654 415.926025,166.052017 416.243500,165.880737 
	C416.147675,165.312225 415.734344,164.914978 415.321014,164.517746 
	C415.208221,164.968018 415.095428,165.418304 414.954407,166.344879 
	C414.944397,179.591095 414.962585,192.361008 414.980774,205.130920 
	C409.477356,205.423462 403.975128,205.741318 398.469879,205.994202 
	C396.648956,206.077866 394.820343,205.994019 392.529846,205.458527 
	C392.072021,170.341309 392.079590,135.752350 392.087158,101.163399 
M528.990234,134.587387 
	C528.839539,127.159172 523.739380,120.944687 516.338989,119.171928 
	C509.704407,117.582626 503.027222,120.874245 499.211060,127.615364 
	C495.800598,133.639816 496.906647,142.464188 501.495087,147.012558 
	C506.868195,152.338821 513.265808,153.445786 519.839111,150.448624 
	C525.910461,147.680344 529.164124,142.428223 528.990234,134.587387 
M428.138000,119.499657 
	C417.276703,121.503288 413.688324,130.600235 415.151215,139.166702 
	C416.208679,145.359344 420.708344,148.932419 426.586456,151.256226 
	C432.394775,153.552475 437.218140,150.884262 440.783386,147.774887 
	C447.375702,142.025513 447.727600,135.141891 444.402313,127.132942 
	C441.695343,120.613228 435.397888,119.195251 428.138000,119.499657 
z"/>
<path fill="#7FD959" opacity="1.000000" stroke="none" 
	d="
M272.129761,58.992558 
	C286.542084,60.523483 297.813171,67.801849 301.690063,80.864059 
	C304.199280,89.318298 304.134003,98.179100 300.170990,106.800949 
	C296.177368,115.489311 288.959442,120.167976 280.319244,124.549263 
	C293.000946,139.822296 305.359406,154.706039 318.192139,170.160995 
	C316.540100,170.509583 315.366943,170.962845 314.190216,170.972275 
	C306.170776,171.036682 298.139984,171.236557 290.137329,170.864777 
	C287.836426,170.757889 284.867584,169.511429 283.480927,167.770935 
	C274.757172,156.821243 266.382812,145.592773 257.919281,134.436478 
	C256.152832,132.108032 254.496613,129.695953 252.162704,127.442825 
	C251.355942,129.356979 251.030365,131.149872 251.019699,132.944626 
	C250.946716,145.234924 250.939774,157.525604 250.453156,169.875427 
	C242.408676,169.914200 234.822617,169.893707 227.173935,169.416687 
	C227.096054,132.357620 227.080795,95.755081 227.526794,59.109890 
	C242.701950,59.042343 257.415863,59.017448 272.129761,58.992558 
M253.017136,107.991348 
	C255.509308,107.991135 258.002319,108.032349 260.493500,107.982712 
	C267.164642,107.849792 274.532928,103.272469 274.854095,98.508400 
	C275.444092,89.756706 276.050476,82.297638 264.786469,80.002213 
	C260.660645,79.161438 256.328308,79.333992 251.483536,79.611435 
	C251.321060,87.362839 251.087723,95.113922 251.051498,102.865913 
	C251.043564,104.567345 251.736908,106.272049 253.017136,107.991348 
z"/>
<path fill="#80D95A" opacity="1.000000" stroke="none" 
	d="
M647.894775,75.118141 
	C647.940552,77.083824 648.020691,79.049408 648.025818,81.015198 
	C648.042542,87.478882 648.032043,93.942642 648.032043,100.943207 
	C653.059326,100.943207 657.791260,100.943207 662.966858,100.943207 
	C662.966858,106.253922 663.219421,111.060898 662.786987,115.805443 
	C662.680603,116.972176 660.402893,118.756866 659.017578,118.861946 
	C648.034058,119.695068 647.982361,119.591705 648.046448,130.588638 
	C648.074402,135.381470 648.079895,140.196594 648.540649,144.958542 
	C649.007629,149.785583 651.929321,151.670731 656.492371,149.700256 
	C659.573730,148.369598 660.486755,149.227036 661.135803,152.319000 
	C661.999878,156.435471 663.529663,160.411453 664.757812,164.452545 
	C665.511169,166.931122 665.334595,169.441849 662.373535,169.814987 
	C654.916504,170.754669 647.314758,172.285736 639.940125,171.642288 
	C632.834656,171.022339 628.464905,165.345886 626.210510,158.133743 
	C626.400696,157.354355 626.244324,157.135391 625.914612,156.994934 
	C625.914612,156.994934 625.991638,157.002426 625.980835,156.630554 
	C625.348877,153.413132 624.727722,150.567551 624.106567,147.721970 
	C624.106628,147.721970 623.985352,147.507904 624.078552,147.117493 
	C624.222168,146.543289 624.272583,146.359482 624.537109,145.809326 
	C624.605286,137.569809 624.459351,129.696625 624.239746,121.553917 
	C624.149658,121.098862 624.133179,120.913322 624.116699,120.727776 
	C624.116699,120.727776 623.981628,120.502052 624.122864,120.182220 
	C623.844482,119.612946 623.424866,119.363503 623.005249,119.114059 
	C619.848877,118.755402 616.692505,118.396751 613.536133,118.038101 
	C613.500061,117.513611 613.463928,116.989120 613.427795,116.464630 
	C612.430847,118.667923 611.433899,120.871216 610.458618,123.026680 
	C591.695923,118.048897 588.930298,118.841896 583.742310,131.083618 
	C583.235901,144.448532 583.122620,157.146683 583.009338,169.844849 
	C580.671570,170.229431 578.326965,170.970139 575.997498,170.925186 
	C571.000244,170.828766 566.010681,170.326935 560.559265,169.459381 
	C560.148376,146.351654 560.196289,123.775642 560.691406,101.157486 
	C562.969116,101.084579 564.805298,100.946075 566.628967,101.043060 
	C572.375183,101.348663 578.116638,101.742622 583.859985,102.102394 
	C583.902161,103.767502 583.944336,105.432602 583.687683,107.623932 
	C583.327515,108.586937 583.266174,109.023727 583.204834,109.460518 
	C583.670715,109.205956 584.136536,108.951393 584.602417,108.696823 
	C592.641296,99.514236 602.430969,96.886955 614.110168,100.454338 
	C616.563171,101.203598 619.355530,100.841705 622.736816,100.884644 
	C623.672852,100.408852 623.863647,100.040245 624.054443,99.671646 
	C624.054443,99.671654 623.975891,99.489433 624.279907,99.045029 
	C624.727295,92.329651 625.013794,86.057365 624.956116,79.788246 
	C624.925293,76.432793 625.993530,74.985435 629.523193,75.094696 
	C635.641479,75.284088 641.770325,75.128845 647.894775,75.118141 
z"/>
<path fill="#80D95B" opacity="1.000000" stroke="none" 
	d="
M336.838440,142.983643 
	C339.830627,153.865280 352.948517,155.471832 360.403259,150.554306 
	C366.690704,146.406754 371.454773,145.985046 377.349030,149.980621 
	C379.895660,151.706909 382.802826,152.901352 385.774658,154.456985 
	C378.289917,165.667007 368.042023,171.444077 354.411713,172.172791 
	C341.592712,172.858139 330.311432,170.093002 321.207855,160.713455 
	C303.176453,142.135376 309.808441,112.970589 331.800110,102.904640 
	C348.365814,95.322243 363.725647,97.666054 377.271820,109.047745 
	C382.945007,113.814438 386.323364,120.982437 386.014862,129.948608 
	C386.027527,138.024551 386.027527,138.025986 378.829498,138.026810 
	C366.592712,138.028214 354.355652,137.986649 342.119507,138.074615 
	C340.404419,138.086945 338.693878,138.729980 336.981232,139.081055 
	C336.981232,139.081055 337.040558,138.951340 336.802917,139.131348 
	C336.656372,140.535461 336.747406,141.759552 336.838440,142.983643 
M362.945190,124.122719 
	C360.964905,117.445114 356.119446,114.100357 349.531525,114.301949 
	C342.352264,114.521629 338.997955,117.896645 337.604034,125.564026 
	C344.384583,125.728188 351.164886,125.978859 357.945801,125.995232 
	C359.624603,125.999290 361.305298,125.243256 362.945190,124.122719 
z"/>
<path fill="#C1E1B2" opacity="1.000000" stroke="none" 
	d="
M227.065536,59.152542 
	C227.080795,95.755081 227.096054,132.357620 226.836182,169.465515 
	C226.336426,170.003113 226.111786,170.035324 225.887161,170.067520 
	C225.924637,167.474518 225.994003,164.881516 225.994675,162.288498 
	C226.002167,133.384415 226.045319,104.480179 225.954010,75.576378 
	C225.938507,70.666679 225.266907,65.761642 225.060730,60.847649 
	C225.022278,59.931198 225.759003,58.982227 226.583313,58.354630 
	C227.028625,58.660992 227.065536,59.152542 227.065536,59.152542 
z"/>
<path fill="#E4FFE3" opacity="1.000000" stroke="none" 
	d="
M140.950714,161.995544 
	C140.903366,126.299019 140.856033,90.602501 141.074432,54.446121 
	C141.517456,53.995049 141.694733,54.003834 141.872009,54.012615 
	C141.910736,89.694870 141.949478,125.377121 141.696259,161.527130 
	C141.404312,161.994888 140.950714,161.995544 140.950714,161.995544 
z"/>
<path fill="#A5DA8F" opacity="1.000000" stroke="none" 
	d="
M391.659576,101.273453 
	C392.079590,135.752350 392.072021,170.341309 392.070801,205.388641 
	C391.511108,205.161865 390.446564,204.473770 390.450623,203.792023 
	C390.653442,169.655502 390.947693,135.519531 391.659576,101.273453 
z"/>
<path fill="#BCD6B0" opacity="1.000000" stroke="none" 
	d="
M647.819214,74.670944 
	C641.770325,75.128845 635.641479,75.284088 629.523193,75.094696 
	C625.993530,74.985435 624.925293,76.432793 624.956116,79.788246 
	C625.013794,86.057365 624.727295,92.329651 624.322632,98.955452 
	C623.721497,93.780594 623.157898,88.253632 623.090637,82.720642 
	C622.966370,72.510277 622.168579,73.983925 631.799316,73.952950 
	C637.113708,73.935844 642.428833,74.126656 647.819214,74.670944 
z"/>
<path fill="#BEDFB1" opacity="1.000000" stroke="none" 
	d="
M560.244141,101.199638 
	C560.196289,123.775642 560.148376,146.351654 560.105896,169.385284 
	C559.740784,168.427246 559.051880,167.012527 559.047607,165.595779 
	C558.984070,144.373138 559.010803,123.150230 559.357910,101.502136 
	C559.880920,101.117798 560.062500,101.158714 560.244141,101.199638 
z"/>
<path fill="#A4ED85" opacity="1.000000" stroke="none" 
	d="
M337.451660,139.044617 
	C338.693878,138.729980 340.404419,138.086945 342.119507,138.074615 
	C354.355652,137.986649 366.592712,138.028214 378.829498,138.026810 
	C386.027527,138.025986 386.027527,138.024551 386.036652,130.376984 
	C386.489594,132.723419 386.932373,135.523468 387.483429,139.008194 
	C370.582703,139.008194 354.252411,139.008194 337.451660,139.044617 
z"/>
<path fill="#CFFFA9" opacity="1.000000" stroke="none" 
	d="
M85.545273,214.909195 
	C86.501625,214.570953 87.915939,214.064758 89.332336,214.058884 
	C105.269531,213.992661 121.207031,214.003326 137.618439,214.011093 
	C136.597183,214.357895 135.102905,214.967575 133.606522,214.972824 
	C117.739273,215.028351 101.871689,214.987732 85.545273,214.909195 
z"/>
<path fill="#BDECAA" opacity="1.000000" stroke="none" 
	d="
M39.651703,44.136765 
	C39.963818,44.332146 39.844757,44.461304 39.792259,44.613430 
	C37.232582,52.031281 37.233196,52.018208 28.850290,52.035999 
	C20.588015,52.053535 12.325803,52.101810 3.605282,52.130733 
	C4.546877,51.749840 5.943717,51.063557 7.347119,51.049858 
	C17.078491,50.954891 26.811230,50.999775 35.872799,50.999775 
	C37.161583,48.360809 38.206581,46.221035 39.651703,44.136765 
z"/>
<path fill="#C7E9B9" opacity="1.000000" stroke="none" 
	d="
M227.526794,59.109890 
	C227.065536,59.152542 227.028625,58.660992 227.017426,58.414780 
	C241.906570,58.181118 256.806885,58.193665 271.918488,58.599384 
	C257.415863,59.017448 242.701950,59.042343 227.526794,59.109890 
z"/>
<path fill="#9DE07F" opacity="1.000000" stroke="none" 
	d="
M250.911560,169.816162 
	C250.939774,157.525604 250.946716,145.234924 251.019699,132.944626 
	C251.030365,131.149872 251.355942,129.356979 251.860474,127.295097 
	C252.118179,141.046982 252.051239,155.066986 251.679810,169.512772 
	C251.375305,169.938538 250.911560,169.816162 250.911560,169.816162 
z"/>
<path fill="#DFEED8" opacity="1.000000" stroke="none" 
	d="
M165.671875,145.956116 
	C160.225937,151.660767 154.422791,157.417038 148.268127,163.056854 
	C153.715942,157.296173 159.515289,151.651932 165.671875,145.956116 
z"/>
<path fill="#BEFE9F" opacity="1.000000" stroke="none" 
	d="
M583.423279,169.710297 
	C583.122620,157.146683 583.235901,144.448532 583.590088,131.423325 
	C583.833008,143.922775 583.835144,156.749252 583.423279,169.710297 
z"/>
<path fill="#DCFFCE" opacity="1.000000" stroke="none" 
	d="
M415.377441,204.923126 
	C414.962585,192.361008 414.944397,179.591095 415.191956,166.382797 
	C415.457703,165.944412 415.926025,166.052017 415.926025,166.052017 
	C415.926025,166.052017 415.927612,165.948654 415.876862,165.940582 
	C415.808807,178.860123 415.791504,191.787735 415.377441,204.923126 
z"/>
<path fill="#B2E59B" opacity="1.000000" stroke="none" 
	d="
M139.031387,51.642052 
	C128.157562,51.831612 117.034721,51.638836 105.993362,51.152031 
	C116.977348,50.991909 127.879860,51.125813 139.031387,51.642052 
z"/>
<path fill="#F7FFF6" opacity="1.000000" stroke="none" 
	d="
M624.322998,146.175674 
	C624.272583,146.359482 624.222168,146.543289 624.143188,147.012848 
	C623.744141,146.315933 623.052795,145.332855 623.053955,144.350601 
	C623.063110,136.626190 623.204651,128.901947 623.711060,120.952713 
	C624.133179,120.913322 624.149658,121.098862 624.131958,122.028152 
	C624.172852,130.573166 624.247925,138.374420 624.322998,146.175674 
z"/>
<path fill="#CFFFB4" opacity="1.000000" stroke="none" 
	d="
M250.453156,169.875427 
	C250.911560,169.816162 251.375305,169.938538 251.611755,169.978149 
	C250.081039,170.344894 248.316345,170.935669 246.546280,170.952286 
	C239.803131,171.015564 233.058212,170.893585 226.100555,170.454163 
	C226.111786,170.035324 226.336426,170.003113 226.898804,169.922058 
	C234.822617,169.893707 242.408676,169.914200 250.453156,169.875427 
z"/>
<path fill="#D6EECC" opacity="1.000000" stroke="none" 
	d="
M560.691406,101.157486 
	C560.062500,101.158714 559.880920,101.117798 559.423096,101.037369 
	C561.080322,100.668175 563.007996,100.102493 564.948547,100.054169 
	C570.245117,99.922272 575.548645,99.944038 580.845825,100.062569 
	C581.916748,100.086525 582.972168,100.803619 583.947388,101.651779 
	C578.116638,101.742622 572.375183,101.348663 566.628967,101.043060 
	C564.805298,100.946075 562.969116,101.084579 560.691406,101.157486 
z"/>
<path fill="#B4CDA9" opacity="1.000000" stroke="none" 
	d="
M624.055542,148.176758 
	C624.727722,150.567551 625.348877,153.413132 625.976379,156.669006 
	C625.323364,154.263382 624.663940,151.447464 624.055542,148.176758 
z"/>
<path fill="#DFEED8" opacity="1.000000" stroke="none" 
	d="
M140.799530,162.290283 
	C140.950714,161.995544 141.404312,161.994888 141.631073,161.990936 
	C141.533340,163.636414 141.208832,165.285828 140.838348,167.302124 
	C140.744354,165.974350 140.696365,164.279678 140.799530,162.290283 
z"/>
<path fill="#DFEED8" opacity="1.000000" stroke="none" 
	d="
M146.629349,164.002472 
	C146.122330,164.961823 145.300629,166.008926 144.087189,167.064453 
	C144.568527,166.078674 145.441589,165.084457 146.629349,164.002472 
z"/>
<path fill="#DFEED8" opacity="1.000000" stroke="none" 
	d="
M142.823807,167.883270 
	C142.462784,168.303635 141.853043,168.909317 141.174561,169.259338 
	C141.595566,168.691986 142.085327,168.380295 142.823807,167.883270 
z"/>
<path fill="#A4ED85" opacity="1.000000" stroke="none" 
	d="
M336.909241,142.590118 
	C336.747406,141.759552 336.656372,140.535461 336.868896,139.158447 
	C337.108368,140.069199 337.044220,141.132904 336.909241,142.590118 
z"/>
<path fill="#B4CDA9" opacity="1.000000" stroke="none" 
	d="
M623.084167,119.364716 
	C623.424866,119.363503 623.844482,119.612946 624.139465,120.051727 
	C623.730896,120.032509 623.447021,119.823936 623.084167,119.364716 
z"/>
<path fill="#DFEED8" opacity="1.000000" stroke="none" 
	d="
M141.894287,53.687485 
	C141.694733,54.003834 141.517456,53.995049 141.073456,53.975410 
	C140.806732,53.964561 140.664719,53.538944 140.693939,53.317249 
	C141.120972,53.184490 141.518768,53.273422 141.894287,53.687485 
z"/>
<path fill="#B4CDA9" opacity="1.000000" stroke="none" 
	d="
M625.983521,157.218384 
	C626.244324,157.135391 626.400696,157.354355 626.292480,157.768555 
	C626.201233,157.885284 626.052490,157.441849 625.983521,157.218384 
z"/>
<path fill="#DFEED8" opacity="1.000000" stroke="none" 
	d="
M147.684113,162.963501 
	C147.827301,163.285019 147.698303,163.662292 147.238556,163.998108 
	C147.075867,163.644180 147.243881,163.331711 147.684113,162.963501 
z"/>
<path fill="#BCD6B0" opacity="1.000000" stroke="none" 
	d="
M623.786377,99.821381 
	C623.863647,100.040245 623.672852,100.408852 623.181030,100.872772 
	C623.092712,100.635773 623.305481,100.303452 623.786377,99.821381 
z"/>
<path fill="#FAFFF7" opacity="1.000000" stroke="none" 
	d="
M99.080292,52.218555 
	C99.151360,61.359776 99.675171,60.070847 91.665276,60.108025 
	C77.710258,60.172806 63.750961,59.942722 49.801556,60.229687 
	C45.295517,60.322380 44.784115,58.442314 44.662640,54.660282 
	C44.525291,50.383980 46.410557,49.463726 50.017967,49.870651 
	C51.002251,49.981678 52.018806,49.799706 53.004959,49.902210 
	C58.045876,50.426197 61.434605,49.776604 61.476299,43.152859 
	C61.508286,38.071201 66.983971,34.193775 71.886070,34.233406 
	C77.327293,34.277397 82.304512,38.306499 82.554604,44.086056 
	C82.779068,49.273457 85.300545,49.926476 89.540222,49.998909 
	C92.715103,50.053150 95.872459,51.133411 99.080292,52.218555 
z"/>
<path fill="#EAFAE3" opacity="1.000000" stroke="none" 
	d="
M25.996746,88.547768 
	C56.492462,88.330490 86.604675,88.226669 116.715744,88.367264 
	C118.177818,88.374084 119.629868,90.526955 121.086578,91.680481 
	C119.675888,92.724449 118.270470,94.671104 116.853745,94.679359 
	C87.405304,94.851089 57.955486,94.839592 28.506231,94.758339 
	C24.126278,94.746262 23.341869,92.847466 25.996746,88.547768 
z"/>
<path fill="#ECFBE6" opacity="1.000000" stroke="none" 
	d="
M87.000000,145.041656 
	C96.989792,145.039398 106.479637,145.054321 115.969337,145.023117 
	C118.446945,145.014969 121.300781,145.205246 120.811478,148.321136 
	C120.595612,149.695801 117.669388,151.627075 115.962044,151.638962 
	C87.161118,151.839417 58.358356,151.781006 29.556013,151.765350 
	C26.952271,151.763931 23.902594,151.514084 24.442715,148.109238 
	C24.642658,146.848816 27.759693,145.196899 29.562752,145.176544 
	C48.539925,144.962418 67.520424,145.042679 87.000000,145.041656 
z"/>
<path fill="#F7FEF3" opacity="1.000000" stroke="none" 
	d="
M115.675446,122.991562 
	C87.101952,122.988144 58.989899,122.989227 30.877846,122.977020 
	C29.384922,122.976372 27.735867,123.230385 26.450258,122.682983 
	C25.481619,122.270538 24.413130,120.753296 24.432907,119.748367 
	C24.451422,118.807724 25.692148,117.643478 26.679079,117.050331 
	C27.427227,116.600685 28.621899,116.861656 29.617887,116.861404 
	C58.228973,116.854225 86.840065,116.853996 115.451149,116.852615 
	C115.617493,116.852608 115.815353,116.792526 115.945404,116.861137 
	C117.638985,117.754601 120.543846,118.429253 120.774811,119.618919 
	C121.405708,122.868469 118.612366,123.066261 115.675446,122.991562 
z"/>
<path fill="#EFFDE8" opacity="1.000000" stroke="none" 
	d="
M117.617508,174.380737 
	C120.818726,177.798172 123.765266,180.969894 126.737144,184.117691 
	C130.726303,188.342957 131.901611,188.412460 136.091782,184.295624 
	C148.446838,172.156754 160.754852,159.969986 173.080826,147.801498 
	C173.791977,147.099442 174.381058,146.126083 175.234619,145.748856 
	C176.696152,145.102921 178.322021,144.828842 179.878891,144.398621 
	C179.569962,146.070709 179.851562,148.327377 178.862656,149.326370 
	C166.092575,162.226608 153.278793,175.090622 140.188354,187.664246 
	C131.367065,196.137314 131.151779,195.936447 122.705612,187.094910 
	C117.644722,181.797134 112.515671,176.555908 107.683441,171.055435 
	C106.707794,169.944855 106.929840,167.782089 106.599709,166.104431 
	C108.121399,166.609192 109.951836,166.742645 111.099594,167.697083 
	C113.389328,169.601120 115.304337,171.955811 117.617508,174.380737 
z"/>
<path fill="#F1FCEB" opacity="1.000000" stroke="none" 
	d="
M59.999992,180.122147 
	C49.525360,180.120407 39.546566,180.265549 29.579872,179.983322 
	C27.753075,179.931580 24.573313,178.306732 24.435051,177.125198 
	C24.000235,173.409393 27.345285,173.925308 29.744835,173.921463 
	C52.353951,173.885208 74.963890,173.991928 97.571663,173.813599 
	C101.945496,173.779083 104.115417,176.100937 106.817505,180.122040 
	C90.855721,180.122040 75.677856,180.122040 59.999992,180.122147 
z"/>
<path fill="#000000" opacity="1.000000" stroke="none" 
	d="
M528.989990,135.024658 
	C529.164124,142.428223 525.910461,147.680344 519.839111,150.448624 
	C513.265808,153.445786 506.868195,152.338821 501.495087,147.012558 
	C496.906647,142.464188 495.800598,133.639816 499.211060,127.615364 
	C503.027222,120.874245 509.704407,117.582626 516.338989,119.171928 
	C523.739380,120.944687 528.839539,127.159172 528.989990,135.024658 
z"/>
<path fill="#000000" opacity="1.000000" stroke="none" 
	d="
M428.504456,119.295975 
	C435.397888,119.195251 441.695343,120.613228 444.402313,127.132942 
	C447.727600,135.141891 447.375702,142.025513 440.783386,147.774887 
	C437.218140,150.884262 432.394775,153.552475 426.586456,151.256226 
	C420.708344,148.932419 416.208679,145.359344 415.151215,139.166702 
	C413.688324,130.600235 417.276703,121.503288 428.504456,119.295975 
z"/>
<path fill="#000000" opacity="1.000000" stroke="none" 
	d="
M416.243500,165.880737 
	C415.926025,166.052017 415.457703,165.944412 415.220154,165.906494 
	C415.095428,165.418304 415.208221,164.968018 415.321014,164.517746 
	C415.734344,164.914978 416.147675,165.312225 416.243500,165.880737 
z"/>
<path fill="#000000" opacity="1.000000" stroke="none" 
	d="
M252.090195,79.044281 
	C256.328308,79.333992 260.660645,79.161438 264.786469,80.002213 
	C276.050476,82.297638 275.444092,89.756706 274.854095,98.508400 
	C274.532928,103.272469 267.164642,107.849792 260.493500,107.982712 
	C258.002319,108.032349 255.509308,107.991135 252.514160,107.518616 
	C252.037506,97.712013 252.063843,88.378151 252.090195,79.044281 
z"/>
<path fill="#9DE080" opacity="1.000000" stroke="none" 
	d="
M251.786865,79.327858 
	C252.063843,88.378151 252.037506,97.712013 252.059235,107.510567 
	C251.736908,106.272049 251.043564,104.567345 251.051498,102.865913 
	C251.087723,95.113922 251.321060,87.362839 251.786865,79.327858 
z"/>
<path fill="#B4CDA9" opacity="1.000000" stroke="none" 
	d="
M624.537109,145.809326 
	C624.247925,138.374420 624.172852,130.573166 624.205566,122.297684 
	C624.459351,129.696625 624.605286,137.569809 624.537109,145.809326 
z"/>
<path fill="#000000" opacity="1.000000" stroke="none" 
	d="
M584.440918,108.495811 
	C584.136536,108.951393 583.670715,109.205956 583.204834,109.460518 
	C583.266174,109.023727 583.327515,108.586937 583.652588,108.039398 
	C584.037292,108.050690 584.158386,108.172745 584.440918,108.495811 
z"/>
<path fill="#000000" opacity="1.000000" stroke="none" 
	d="
M337.055634,124.937874 
	C338.997955,117.896645 342.352264,114.521629 349.531525,114.301949 
	C356.119446,114.100357 360.964905,117.445114 362.502106,124.553871 
	C353.724548,124.969307 345.390106,124.953590 337.055634,124.937874 
z"/>
<path fill="#B7E3A4" opacity="1.000000" stroke="none" 
	d="
M337.329834,125.250946 
	C345.390106,124.953590 353.724548,124.969307 362.522064,124.910820 
	C361.305298,125.243256 359.624603,125.999290 357.945801,125.995232 
	C351.164886,125.978859 344.384583,125.728188 337.329834,125.250946 
z"/>
</svg>